<?xml version="1.0" encoding="utf-8" standalone="no"?>
<!DOCTYPE svg PUBLIC "-//W3C//DTD SVG 1.1//EN"
  "http://www.w3.org/Graphics/SVG/1.1/DTD/svg11.dtd">
<svg xmlns:xlink="http://www.w3.org/1999/xlink" width="381.365625pt" height="208.591875pt" viewBox="0 0 381.365625 208.591875" xmlns="http://www.w3.org/2000/svg" version="1.1">
 <metadata>
  <rdf:RDF xmlns:dc="http://purl.org/dc/elements/1.1/" xmlns:cc="http://creativecommons.org/ns#" xmlns:rdf="http://www.w3.org/1999/02/22-rdf-syntax-ns#">
   <cc:Work>
    <dc:type rdf:resource="http://purl.org/dc/dcmitype/StillImage"/>
    <dc:date>2026-04-16T14:54:23.875362</dc:date>
    <dc:format>image/svg+xml</dc:format>
    <dc:creator>
     <cc:Agent>
      <dc:title>Matplotlib v3.10.8, https://matplotlib.org/</dc:title>
     </cc:Agent>
    </dc:creator>
   </cc:Work>
  </rdf:RDF>
 </metadata>
 <defs>
  <style type="text/css">*{stroke-linejoin: round; stroke-linecap: butt}</style>
 </defs>
 <g id="figure_1">
  <g id="patch_1">
   <path d="M 0 208.591875 
L 381.365625 208.591875 
L 381.365625 0 
L 0 0 
z
" style="fill: #ffffff"/>
  </g>
  <g id="axes_1">
   <g id="patch_2">
    <path d="M 46.403125 169.1 
L 374.165625 169.1 
L 374.165625 7.2 
L 46.403125 7.2 
z
" style="fill: #ffffff"/>
   </g>
   <g id="matplotlib.axis_1">
    <g id="xtick_1">
     <g id="line2d_1">
      <defs>
       <path id="m351df10ccb" d="M 0 0 
L 0 3.5 
" style="stroke: #000000; stroke-width: 0.8"/>
      </defs>
      <g>
       <use xlink:href="#m351df10ccb" x="46.403125" y="169.1" style="stroke: #000000; stroke-width: 0.8"/>
      </g>
     </g>
     <g id="text_1">
      <!-- 0 -->
      <g transform="translate(43.221875 183.698437) scale(0.1 -0.1)">
       <defs>
        <path id="DejaVuSans-30" d="M 2034 4250 
Q 1547 4250 1301 3770 
Q 1056 3291 1056 2328 
Q 1056 1369 1301 889 
Q 1547 409 2034 409 
Q 2525 409 2770 889 
Q 3016 1369 3016 2328 
Q 3016 3291 2770 3770 
Q 2525 4250 2034 4250 
z
M 2034 4750 
Q 2819 4750 3233 4129 
Q 3647 3509 3647 2328 
Q 3647 1150 3233 529 
Q 2819 -91 2034 -91 
Q 1250 -91 836 529 
Q 422 1150 422 2328 
Q 422 3509 836 4129 
Q 1250 4750 2034 4750 
z
" transform="scale(0.015625)"/>
       </defs>
       <use xlink:href="#DejaVuSans-30"/>
      </g>
     </g>
    </g>
    <g id="xtick_2">
     <g id="line2d_2">
      <g>
       <use xlink:href="#m351df10ccb" x="112.174864" y="169.1" style="stroke: #000000; stroke-width: 0.8"/>
      </g>
     </g>
     <g id="text_2">
      <!-- 2 -->
      <g transform="translate(108.993614 183.698437) scale(0.1 -0.1)">
       <defs>
        <path id="DejaVuSans-32" d="M 1228 531 
L 3431 531 
L 3431 0 
L 469 0 
L 469 531 
Q 828 903 1448 1529 
Q 2069 2156 2228 2338 
Q 2531 2678 2651 2914 
Q 2772 3150 2772 3378 
Q 2772 3750 2511 3984 
Q 2250 4219 1831 4219 
Q 1534 4219 1204 4116 
Q 875 4013 500 3803 
L 500 4441 
Q 881 4594 1212 4672 
Q 1544 4750 1819 4750 
Q 2544 4750 2975 4387 
Q 3406 4025 3406 3419 
Q 3406 3131 3298 2873 
Q 3191 2616 2906 2266 
Q 2828 2175 2409 1742 
Q 1991 1309 1228 531 
z
" transform="scale(0.015625)"/>
       </defs>
       <use xlink:href="#DejaVuSans-32"/>
      </g>
     </g>
    </g>
    <g id="xtick_3">
     <g id="line2d_3">
      <g>
       <use xlink:href="#m351df10ccb" x="177.946603" y="169.1" style="stroke: #000000; stroke-width: 0.8"/>
      </g>
     </g>
     <g id="text_3">
      <!-- 4 -->
      <g transform="translate(174.765353 183.698437) scale(0.1 -0.1)">
       <defs>
        <path id="DejaVuSans-34" d="M 2419 4116 
L 825 1625 
L 2419 1625 
L 2419 4116 
z
M 2253 4666 
L 3047 4666 
L 3047 1625 
L 3713 1625 
L 3713 1100 
L 3047 1100 
L 3047 0 
L 2419 0 
L 2419 1100 
L 313 1100 
L 313 1709 
L 2253 4666 
z
" transform="scale(0.015625)"/>
       </defs>
       <use xlink:href="#DejaVuSans-34"/>
      </g>
     </g>
    </g>
    <g id="xtick_4">
     <g id="line2d_4">
      <g>
       <use xlink:href="#m351df10ccb" x="243.718342" y="169.1" style="stroke: #000000; stroke-width: 0.8"/>
      </g>
     </g>
     <g id="text_4">
      <!-- 6 -->
      <g transform="translate(240.537092 183.698437) scale(0.1 -0.1)">
       <defs>
        <path id="DejaVuSans-36" d="M 2113 2584 
Q 1688 2584 1439 2293 
Q 1191 2003 1191 1497 
Q 1191 994 1439 701 
Q 1688 409 2113 409 
Q 2538 409 2786 701 
Q 3034 994 3034 1497 
Q 3034 2003 2786 2293 
Q 2538 2584 2113 2584 
z
M 3366 4563 
L 3366 3988 
Q 3128 4100 2886 4159 
Q 2644 4219 2406 4219 
Q 1781 4219 1451 3797 
Q 1122 3375 1075 2522 
Q 1259 2794 1537 2939 
Q 1816 3084 2150 3084 
Q 2853 3084 3261 2657 
Q 3669 2231 3669 1497 
Q 3669 778 3244 343 
Q 2819 -91 2113 -91 
Q 1303 -91 875 529 
Q 447 1150 447 2328 
Q 447 3434 972 4092 
Q 1497 4750 2381 4750 
Q 2619 4750 2861 4703 
Q 3103 4656 3366 4563 
z
" transform="scale(0.015625)"/>
       </defs>
       <use xlink:href="#DejaVuSans-36"/>
      </g>
     </g>
    </g>
    <g id="xtick_5">
     <g id="line2d_5">
      <g>
       <use xlink:href="#m351df10ccb" x="309.490082" y="169.1" style="stroke: #000000; stroke-width: 0.8"/>
      </g>
     </g>
     <g id="text_5">
      <!-- 8 -->
      <g transform="translate(306.308832 183.698437) scale(0.1 -0.1)">
       <defs>
        <path id="DejaVuSans-38" d="M 2034 2216 
Q 1584 2216 1326 1975 
Q 1069 1734 1069 1313 
Q 1069 891 1326 650 
Q 1584 409 2034 409 
Q 2484 409 2743 651 
Q 3003 894 3003 1313 
Q 3003 1734 2745 1975 
Q 2488 2216 2034 2216 
z
M 1403 2484 
Q 997 2584 770 2862 
Q 544 3141 544 3541 
Q 544 4100 942 4425 
Q 1341 4750 2034 4750 
Q 2731 4750 3128 4425 
Q 3525 4100 3525 3541 
Q 3525 3141 3298 2862 
Q 3072 2584 2669 2484 
Q 3125 2378 3379 2068 
Q 3634 1759 3634 1313 
Q 3634 634 3220 271 
Q 2806 -91 2034 -91 
Q 1263 -91 848 271 
Q 434 634 434 1313 
Q 434 1759 690 2068 
Q 947 2378 1403 2484 
z
M 1172 3481 
Q 1172 3119 1398 2916 
Q 1625 2713 2034 2713 
Q 2441 2713 2670 2916 
Q 2900 3119 2900 3481 
Q 2900 3844 2670 4047 
Q 2441 4250 2034 4250 
Q 1625 4250 1398 4047 
Q 1172 3844 1172 3481 
z
" transform="scale(0.015625)"/>
       </defs>
       <use xlink:href="#DejaVuSans-38"/>
      </g>
     </g>
    </g>
    <g id="text_6">
     <!-- Time (s) -->
     <g transform="translate(185.889687 198.89625) scale(0.12 -0.12)">
      <defs>
       <path id="DejaVuSans-54" d="M -19 4666 
L 3928 4666 
L 3928 4134 
L 2272 4134 
L 2272 0 
L 1638 0 
L 1638 4134 
L -19 4134 
L -19 4666 
z
" transform="scale(0.015625)"/>
       <path id="DejaVuSans-69" d="M 603 3500 
L 1178 3500 
L 1178 0 
L 603 0 
L 603 3500 
z
M 603 4863 
L 1178 4863 
L 1178 4134 
L 603 4134 
L 603 4863 
z
" transform="scale(0.015625)"/>
       <path id="DejaVuSans-6d" d="M 3328 2828 
Q 3544 3216 3844 3400 
Q 4144 3584 4550 3584 
Q 5097 3584 5394 3201 
Q 5691 2819 5691 2113 
L 5691 0 
L 5113 0 
L 5113 2094 
Q 5113 2597 4934 2840 
Q 4756 3084 4391 3084 
Q 3944 3084 3684 2787 
Q 3425 2491 3425 1978 
L 3425 0 
L 2847 0 
L 2847 2094 
Q 2847 2600 2669 2842 
Q 2491 3084 2119 3084 
Q 1678 3084 1418 2786 
Q 1159 2488 1159 1978 
L 1159 0 
L 581 0 
L 581 3500 
L 1159 3500 
L 1159 2956 
Q 1356 3278 1631 3431 
Q 1906 3584 2284 3584 
Q 2666 3584 2933 3390 
Q 3200 3197 3328 2828 
z
" transform="scale(0.015625)"/>
       <path id="DejaVuSans-65" d="M 3597 1894 
L 3597 1613 
L 953 1613 
Q 991 1019 1311 708 
Q 1631 397 2203 397 
Q 2534 397 2845 478 
Q 3156 559 3463 722 
L 3463 178 
Q 3153 47 2828 -22 
Q 2503 -91 2169 -91 
Q 1331 -91 842 396 
Q 353 884 353 1716 
Q 353 2575 817 3079 
Q 1281 3584 2069 3584 
Q 2775 3584 3186 3129 
Q 3597 2675 3597 1894 
z
M 3022 2063 
Q 3016 2534 2758 2815 
Q 2500 3097 2075 3097 
Q 1594 3097 1305 2825 
Q 1016 2553 972 2059 
L 3022 2063 
z
" transform="scale(0.015625)"/>
       <path id="DejaVuSans-20" transform="scale(0.015625)"/>
       <path id="DejaVuSans-28" d="M 1984 4856 
Q 1566 4138 1362 3434 
Q 1159 2731 1159 2009 
Q 1159 1288 1364 580 
Q 1569 -128 1984 -844 
L 1484 -844 
Q 1016 -109 783 600 
Q 550 1309 550 2009 
Q 550 2706 781 3412 
Q 1013 4119 1484 4856 
L 1984 4856 
z
" transform="scale(0.015625)"/>
       <path id="DejaVuSans-73" d="M 2834 3397 
L 2834 2853 
Q 2591 2978 2328 3040 
Q 2066 3103 1784 3103 
Q 1356 3103 1142 2972 
Q 928 2841 928 2578 
Q 928 2378 1081 2264 
Q 1234 2150 1697 2047 
L 1894 2003 
Q 2506 1872 2764 1633 
Q 3022 1394 3022 966 
Q 3022 478 2636 193 
Q 2250 -91 1575 -91 
Q 1294 -91 989 -36 
Q 684 19 347 128 
L 347 722 
Q 666 556 975 473 
Q 1284 391 1588 391 
Q 1994 391 2212 530 
Q 2431 669 2431 922 
Q 2431 1156 2273 1281 
Q 2116 1406 1581 1522 
L 1381 1569 
Q 847 1681 609 1914 
Q 372 2147 372 2553 
Q 372 3047 722 3315 
Q 1072 3584 1716 3584 
Q 2034 3584 2315 3537 
Q 2597 3491 2834 3397 
z
" transform="scale(0.015625)"/>
       <path id="DejaVuSans-29" d="M 513 4856 
L 1013 4856 
Q 1481 4119 1714 3412 
Q 1947 2706 1947 2009 
Q 1947 1309 1714 600 
Q 1481 -109 1013 -844 
L 513 -844 
Q 928 -128 1133 580 
Q 1338 1288 1338 2009 
Q 1338 2731 1133 3434 
Q 928 4138 513 4856 
z
" transform="scale(0.015625)"/>
      </defs>
      <use xlink:href="#DejaVuSans-54"/>
      <use xlink:href="#DejaVuSans-69" transform="translate(57.958984 0)"/>
      <use xlink:href="#DejaVuSans-6d" transform="translate(85.742188 0)"/>
      <use xlink:href="#DejaVuSans-65" transform="translate(183.154297 0)"/>
      <use xlink:href="#DejaVuSans-20" transform="translate(244.677734 0)"/>
      <use xlink:href="#DejaVuSans-28" transform="translate(276.464844 0)"/>
      <use xlink:href="#DejaVuSans-73" transform="translate(315.478516 0)"/>
      <use xlink:href="#DejaVuSans-29" transform="translate(367.578125 0)"/>
     </g>
    </g>
   </g>
   <g id="matplotlib.axis_2">
    <g id="ytick_1">
     <g id="line2d_6"/>
     <g id="text_7">
      <!-- Nose -->
      <g transform="translate(17.940625 61.399051) scale(0.1 -0.1)">
       <defs>
        <path id="DejaVuSans-4e" d="M 628 4666 
L 1478 4666 
L 3547 763 
L 3547 4666 
L 4159 4666 
L 4159 0 
L 3309 0 
L 1241 3903 
L 1241 0 
L 628 0 
L 628 4666 
z
" transform="scale(0.015625)"/>
        <path id="DejaVuSans-6f" d="M 1959 3097 
Q 1497 3097 1228 2736 
Q 959 2375 959 1747 
Q 959 1119 1226 758 
Q 1494 397 1959 397 
Q 2419 397 2687 759 
Q 2956 1122 2956 1747 
Q 2956 2369 2687 2733 
Q 2419 3097 1959 3097 
z
M 1959 3584 
Q 2709 3584 3137 3096 
Q 3566 2609 3566 1747 
Q 3566 888 3137 398 
Q 2709 -91 1959 -91 
Q 1206 -91 779 398 
Q 353 888 353 1747 
Q 353 2609 779 3096 
Q 1206 3584 1959 3584 
z
" transform="scale(0.015625)"/>
       </defs>
       <use xlink:href="#DejaVuSans-4e"/>
       <use xlink:href="#DejaVuSans-6f" transform="translate(74.804688 0)"/>
       <use xlink:href="#DejaVuSans-73" transform="translate(135.986328 0)"/>
       <use xlink:href="#DejaVuSans-65" transform="translate(188.085938 0)"/>
      </g>
     </g>
    </g>
    <g id="ytick_2">
     <g id="line2d_7"/>
     <g id="text_8">
      <!-- Eye -->
      <g transform="translate(24.5125 82.561336) scale(0.1 -0.1)">
       <defs>
        <path id="DejaVuSans-45" d="M 628 4666 
L 3578 4666 
L 3578 4134 
L 1259 4134 
L 1259 2753 
L 3481 2753 
L 3481 2222 
L 1259 2222 
L 1259 531 
L 3634 531 
L 3634 0 
L 628 0 
L 628 4666 
z
" transform="scale(0.015625)"/>
        <path id="DejaVuSans-79" d="M 2059 -325 
Q 1816 -950 1584 -1140 
Q 1353 -1331 966 -1331 
L 506 -1331 
L 506 -850 
L 844 -850 
Q 1081 -850 1212 -737 
Q 1344 -625 1503 -206 
L 1606 56 
L 191 3500 
L 800 3500 
L 1894 763 
L 2988 3500 
L 3597 3500 
L 2059 -325 
z
" transform="scale(0.015625)"/>
       </defs>
       <use xlink:href="#DejaVuSans-45"/>
       <use xlink:href="#DejaVuSans-79" transform="translate(63.183594 0)"/>
       <use xlink:href="#DejaVuSans-65" transform="translate(122.363281 0)"/>
      </g>
     </g>
    </g>
    <g id="ytick_3">
     <g id="line2d_8"/>
     <g id="text_9">
      <!-- Pupil -->
      <g transform="translate(18.80625 103.723622) scale(0.1 -0.1)">
       <defs>
        <path id="DejaVuSans-50" d="M 1259 4147 
L 1259 2394 
L 2053 2394 
Q 2494 2394 2734 2622 
Q 2975 2850 2975 3272 
Q 2975 3691 2734 3919 
Q 2494 4147 2053 4147 
L 1259 4147 
z
M 628 4666 
L 2053 4666 
Q 2838 4666 3239 4311 
Q 3641 3956 3641 3272 
Q 3641 2581 3239 2228 
Q 2838 1875 2053 1875 
L 1259 1875 
L 1259 0 
L 628 0 
L 628 4666 
z
" transform="scale(0.015625)"/>
        <path id="DejaVuSans-75" d="M 544 1381 
L 544 3500 
L 1119 3500 
L 1119 1403 
Q 1119 906 1312 657 
Q 1506 409 1894 409 
Q 2359 409 2629 706 
Q 2900 1003 2900 1516 
L 2900 3500 
L 3475 3500 
L 3475 0 
L 2900 0 
L 2900 538 
Q 2691 219 2414 64 
Q 2138 -91 1772 -91 
Q 1169 -91 856 284 
Q 544 659 544 1381 
z
M 1991 3584 
L 1991 3584 
z
" transform="scale(0.015625)"/>
        <path id="DejaVuSans-70" d="M 1159 525 
L 1159 -1331 
L 581 -1331 
L 581 3500 
L 1159 3500 
L 1159 2969 
Q 1341 3281 1617 3432 
Q 1894 3584 2278 3584 
Q 2916 3584 3314 3078 
Q 3713 2572 3713 1747 
Q 3713 922 3314 415 
Q 2916 -91 2278 -91 
Q 1894 -91 1617 61 
Q 1341 213 1159 525 
z
M 3116 1747 
Q 3116 2381 2855 2742 
Q 2594 3103 2138 3103 
Q 1681 3103 1420 2742 
Q 1159 2381 1159 1747 
Q 1159 1113 1420 752 
Q 1681 391 2138 391 
Q 2594 391 2855 752 
Q 3116 1113 3116 1747 
z
" transform="scale(0.015625)"/>
        <path id="DejaVuSans-6c" d="M 603 4863 
L 1178 4863 
L 1178 0 
L 603 0 
L 603 4863 
z
" transform="scale(0.015625)"/>
       </defs>
       <use xlink:href="#DejaVuSans-50"/>
       <use xlink:href="#DejaVuSans-75" transform="translate(58.552734 0)"/>
       <use xlink:href="#DejaVuSans-70" transform="translate(121.931641 0)"/>
       <use xlink:href="#DejaVuSans-69" transform="translate(185.408203 0)"/>
       <use xlink:href="#DejaVuSans-6c" transform="translate(213.191406 0)"/>
      </g>
     </g>
    </g>
    <g id="ytick_4">
     <g id="line2d_9"/>
     <g id="text_10">
      <!-- Tongue -->
      <g transform="translate(7.2 124.885907) scale(0.1 -0.1)">
       <defs>
        <path id="DejaVuSans-6e" d="M 3513 2113 
L 3513 0 
L 2938 0 
L 2938 2094 
Q 2938 2591 2744 2837 
Q 2550 3084 2163 3084 
Q 1697 3084 1428 2787 
Q 1159 2491 1159 1978 
L 1159 0 
L 581 0 
L 581 3500 
L 1159 3500 
L 1159 2956 
Q 1366 3272 1645 3428 
Q 1925 3584 2291 3584 
Q 2894 3584 3203 3211 
Q 3513 2838 3513 2113 
z
" transform="scale(0.015625)"/>
        <path id="DejaVuSans-67" d="M 2906 1791 
Q 2906 2416 2648 2759 
Q 2391 3103 1925 3103 
Q 1463 3103 1205 2759 
Q 947 2416 947 1791 
Q 947 1169 1205 825 
Q 1463 481 1925 481 
Q 2391 481 2648 825 
Q 2906 1169 2906 1791 
z
M 3481 434 
Q 3481 -459 3084 -895 
Q 2688 -1331 1869 -1331 
Q 1566 -1331 1297 -1286 
Q 1028 -1241 775 -1147 
L 775 -588 
Q 1028 -725 1275 -790 
Q 1522 -856 1778 -856 
Q 2344 -856 2625 -561 
Q 2906 -266 2906 331 
L 2906 616 
Q 2728 306 2450 153 
Q 2172 0 1784 0 
Q 1141 0 747 490 
Q 353 981 353 1791 
Q 353 2603 747 3093 
Q 1141 3584 1784 3584 
Q 2172 3584 2450 3431 
Q 2728 3278 2906 2969 
L 2906 3500 
L 3481 3500 
L 3481 434 
z
" transform="scale(0.015625)"/>
       </defs>
       <use xlink:href="#DejaVuSans-54"/>
       <use xlink:href="#DejaVuSans-6f" transform="translate(44.083984 0)"/>
       <use xlink:href="#DejaVuSans-6e" transform="translate(105.265625 0)"/>
       <use xlink:href="#DejaVuSans-67" transform="translate(168.644531 0)"/>
       <use xlink:href="#DejaVuSans-75" transform="translate(232.121094 0)"/>
       <use xlink:href="#DejaVuSans-65" transform="translate(295.5 0)"/>
      </g>
     </g>
    </g>
   </g>
   <g id="line2d_10">
    <path d="M 46.403125 45.765182 
L 47.499321 46.803742 
L 48.595516 47.404798 
L 49.691712 48.159699 
L 50.787908 49.836288 
L 51.884103 50.14702 
L 52.980299 50.719197 
L 54.076495 51.544466 
L 55.17269 51.154924 
L 56.268886 51.415542 
L 57.365082 51.233238 
L 58.461277 50.400443 
L 59.557473 50.426616 
L 61.749864 50.75703 
L 62.84606 51.111757 
L 63.942255 50.790398 
L 65.038451 49.914932 
L 66.134647 49.808378 
L 67.230842 49.565994 
L 69.423234 49.3846 
L 71.615625 49.484373 
L 72.711821 50.026738 
L 73.808016 50.050513 
L 74.904212 50.222728 
L 76.000408 50.185887 
L 78.192799 49.424873 
L 80.38519 49.200972 
L 81.481386 49.583361 
L 82.577582 49.307237 
L 84.769973 47.892011 
L 85.866168 47.967017 
L 86.962364 48.56946 
L 88.05856 49.403951 
L 89.154755 49.839637 
L 90.250951 50.827115 
L 91.347147 52.124706 
L 92.443342 53.097547 
L 94.635734 53.660296 
L 96.828125 51.432619 
L 97.924321 50.746156 
L 99.020516 49.853985 
L 100.116712 49.560867 
L 101.212908 49.791797 
L 102.309103 49.367812 
L 104.501495 50.206478 
L 105.59769 50.144787 
L 106.693886 50.3151 
L 107.790082 50.295956 
L 109.982473 49.828886 
L 111.078668 50.464491 
L 115.463451 52.106223 
L 117.655842 52.161712 
L 119.848234 50.815373 
L 120.944429 50.626411 
L 122.040625 50.812354 
L 123.136821 50.754632 
L 125.329212 51.106712 
L 127.521603 51.946371 
L 129.713995 51.570929 
L 130.81019 51.656644 
L 133.002582 51.466855 
L 134.098777 51.532806 
L 135.194973 52.534219 
L 136.291168 58.828536 
L 137.387364 65.872787 
L 138.48356 74.897246 
L 139.579755 84.875153 
L 140.675951 90.396031 
L 141.772147 98.106795 
L 142.868342 107.964824 
L 143.964538 112.922915 
L 145.060734 118.44934 
L 146.156929 121.613473 
M 152.734103 129.321486 
L 153.830299 129.803689 
L 154.926495 129.467942 
L 157.118886 128.305676 
L 159.311277 127.079378 
L 160.407473 126.063411 
L 163.69606 124.013634 
L 164.792255 123.412327 
L 165.888451 124.554641 
L 168.080842 129.000355 
L 170.273234 129.000355 
L 171.369429 126.063962 
L 172.465625 125.375438 
L 173.561821 122.551902 
L 174.658016 118.10462 
L 175.754212 116.622815 
L 176.850408 116.960618 
L 177.946603 115.609351 
L 179.042799 112.20402 
L 180.138995 106.760608 
L 181.23519 102.711996 
L 182.331386 99.976562 
L 183.427582 99.230971 
L 184.523777 99.128344 
L 185.619973 100.762826 
L 186.716168 99.579288 
L 190.004755 111.734594 
L 191.100951 114.504305 
L 192.197147 112.865137 
L 193.293342 108.451792 
L 194.389538 108.231282 
L 195.485734 107.833801 
L 196.581929 106.98393 
L 197.678125 105.772178 
L 198.774321 103.79962 
L 199.870516 102.89736 
L 200.966712 103.065399 
L 202.062908 102.379639 
L 204.255299 95.536816 
L 205.351495 91.906606 
L 206.44769 86.957306 
L 207.543886 82.89203 
L 208.640082 80.801505 
L 211.928668 78.535849 
L 213.024864 77.457321 
L 214.12106 77.852238 
L 215.217255 78.73494 
L 216.313451 78.584185 
L 217.409647 77.351429 
L 219.602038 73.031944 
L 220.698234 71.501439 
L 221.794429 69.718917 
L 223.986821 65.341793 
L 225.083016 63.949515 
L 226.179212 62.796809 
L 228.371603 59.612292 
L 229.467799 58.423737 
L 230.563995 57.467063 
L 231.66019 57.163401 
L 232.756386 56.982338 
L 233.852582 57.053539 
L 236.044973 58.097748 
L 237.141168 58.368951 
L 238.237364 59.23594 
L 239.33356 59.920874 
L 240.429755 60.170286 
L 241.525951 60.275518 
L 244.814538 61.109305 
L 245.910734 61.28429 
L 247.006929 61.34652 
L 248.103125 61.709847 
L 249.199321 61.636577 
L 250.295516 61.285738 
L 253.584103 61.187205 
L 254.680299 61.503891 
L 255.776495 61.09843 
L 260.161277 61.629548 
L 261.257473 61.426239 
L 262.353668 60.894542 
L 263.449864 61.618632 
L 264.54606 62.087149 
L 265.642255 62.239559 
L 266.738451 62.116341 
L 267.834647 61.616275 
L 268.930842 61.843856 
L 270.027038 61.863538 
L 272.219429 61.274574 
L 273.315625 61.293015 
L 274.411821 61.455514 
L 275.508016 62.090292 
L 276.604212 62.294345 
L 277.700408 62.740327 
L 278.796603 62.557196 
L 279.892799 61.706539 
L 282.08519 60.280107 
L 283.181386 59.094653 
L 285.373777 57.326727 
L 286.469973 57.183952 
L 287.566168 57.422903 
L 288.662364 58.144016 
L 290.854755 58.383009 
L 291.950951 58.067026 
L 293.047147 58.811335 
L 294.143342 58.790372 
L 295.239538 59.164036 
L 296.335734 58.803066 
L 298.528125 59.524592 
L 299.624321 60.378971 
L 300.720516 59.918682 
L 301.816712 60.315377 
L 302.912908 60.406219 
L 305.105299 59.851202 
L 307.29769 58.890931 
L 308.393886 58.898663 
L 310.586277 57.376014 
L 311.682473 57.009586 
L 312.778668 57.453004 
L 314.97106 57.326024 
L 316.067255 57.058584 
L 317.163451 56.3445 
L 318.259647 56.509272 
L 319.355842 56.878802 
L 320.452038 56.384277 
L 321.548234 56.677601 
L 323.740625 56.372203 
L 324.836821 57.393628 
L 325.933016 57.599832 
L 327.029212 57.532186 
L 329.221603 56.740823 
L 330.317799 55.610734 
L 332.51019 54.320214 
L 333.606386 54.110413 
L 334.702582 53.592568 
L 335.798777 53.544811 
L 336.894973 54.10417 
L 337.991168 54.98435 
L 339.087364 55.582783 
L 341.279755 54.835 
L 343.472147 54.560861 
L 344.568342 53.898214 
L 345.664538 53.573796 
L 346.760734 53.616426 
L 347.856929 53.546217 
L 350.049321 53.960443 
L 351.145516 53.642517 
L 352.241712 53.823787 
L 353.337908 54.213867 
L 354.434103 53.940059 
L 355.530299 53.784382 
L 356.626495 52.448504 
L 358.818886 41.072075 
L 362.107473 22.45648 
L 363.203668 19.166277 
L 364.299864 14.559091 
L 366.492255 21.497201 
L 367.588451 25.349285 
L 368.684647 30.027796 
L 369.780842 30.374418 
L 370.877038 27.966835 
L 371.973234 30.333814 
L 373.069429 28.744686 
L 374.165625 26.820982 
L 374.165625 26.820982 
" clip-path="url(#pafeadf0f95)" style="fill: none; stroke: #4c78a8; stroke-width: 1.6; stroke-linecap: round"/>
   </g>
   <g id="line2d_11">
    <path d="M 46.403125 62.137577 
L 47.499321 61.852534 
L 48.595516 61.371781 
L 49.691712 63.422578 
L 50.787908 65.747383 
L 51.884103 67.525094 
L 52.980299 67.293275 
L 54.076495 69.051055 
L 55.17269 71.086379 
L 56.268886 74.71982 
L 57.365082 75.223749 
L 58.461277 76.236508 
L 59.557473 77.895271 
L 60.653668 77.418416 
L 61.749864 76.771665 
L 62.84606 75.606278 
L 63.942255 72.911307 
L 67.230842 67.837598 
L 69.423234 67.968696 
L 70.519429 67.701597 
L 71.615625 67.246058 
L 72.711821 66.932275 
L 74.904212 65.263599 
L 77.096603 64.323317 
L 78.192799 64.161097 
L 79.288995 64.235066 
L 81.481386 63.729859 
L 82.577582 63.967008 
L 83.673777 65.992419 
L 86.962364 73.963502 
L 88.05856 74.208645 
L 90.250951 73.559336 
L 91.347147 71.150329 
L 92.443342 68.388956 
L 94.635734 62.322313 
L 95.731929 61.85068 
L 96.828125 61.992862 
L 97.924321 61.97858 
L 99.020516 62.553813 
L 100.116712 63.338376 
L 101.212908 65.066526 
L 103.405299 68.011863 
L 104.501495 70.420123 
L 105.59769 72.415159 
L 106.693886 73.29277 
L 107.790082 74.711613 
L 108.886277 76.905534 
L 109.982473 77.919892 
L 111.078668 79.515345 
L 112.174864 79.989004 
L 113.27106 80.837411 
L 114.367255 82.677473 
L 115.463451 84.05784 
L 116.559647 84.251503 
L 117.655842 85.369354 
L 119.848234 86.881991 
L 120.944429 87.895816 
L 122.040625 87.821847 
L 123.136821 87.392847 
L 124.233016 86.564371 
L 126.425408 85.301779 
L 127.521603 84.985332 
L 128.617799 84.376206 
L 129.713995 84.214944 
L 130.81019 84.185101 
L 131.906386 83.87782 
L 133.002582 83.995275 
L 134.098777 85.149045 
L 135.194973 92.104384 
L 136.291168 96.470269 
L 141.772147 130.656276 
L 142.868342 132.670816 
L 143.964538 135.038149 
L 145.060734 136.581589 
L 146.156929 138.981536 
L 148.349321 140.952164 
L 149.445516 141.005456 
L 150.541712 137.165774 
L 151.637908 137.374998 
L 152.734103 135.176175 
L 153.830299 130.767656 
L 154.926495 130.137319 
L 156.02269 128.450737 
L 157.118886 125.590348 
L 158.215082 125.69448 
L 159.311277 123.172601 
L 160.407473 121.223077 
L 161.503668 119.919131 
L 163.69606 110.399492 
L 164.792255 109.440878 
L 165.888451 107.084843 
L 166.984647 107.281916 
L 168.080842 106.542544 
L 169.177038 104.779435 
L 170.273234 105.546199 
L 171.369429 107.736603 
L 172.465625 105.622087 
L 173.561821 102.647866 
L 174.658016 97.617644 
L 175.754212 94.96829 
L 176.850408 94.756082 
L 177.946603 92.985725 
L 179.042799 90.442955 
L 180.138995 88.968902 
L 181.23519 89.354202 
L 182.331386 90.06842 
L 183.427582 88.739213 
L 184.523777 89.012921 
L 185.619973 87.83954 
L 186.716168 87.389649 
L 187.812364 89.680455 
L 188.90856 89.979636 
L 190.004755 89.536673 
L 191.100951 91.317262 
L 192.197147 90.044225 
L 193.293342 90.731798 
L 194.389538 92.716281 
L 195.485734 91.178703 
L 196.581929 91.142465 
L 197.678125 94.696502 
L 198.774321 93.872822 
L 199.870516 95.739531 
L 200.966712 99.102995 
L 202.062908 100.542516 
L 203.159103 101.486209 
L 204.255299 101.329105 
L 205.351495 99.46101 
L 206.44769 98.928624 
L 207.543886 97.667418 
L 208.640082 94.69 
L 209.736277 93.478569 
L 210.832473 90.83593 
L 211.928668 89.962902 
L 213.024864 88.330358 
L 214.12106 88.248075 
L 216.313451 88.439287 
L 217.409647 86.451925 
L 218.505842 87.285517 
L 219.602038 86.63493 
L 220.698234 84.714716 
L 221.794429 84.045796 
L 222.890625 82.509284 
L 223.986821 80.522136 
L 225.083016 79.779033 
L 226.179212 79.929743 
L 227.275408 80.415019 
L 229.467799 83.404481 
L 230.563995 83.856183 
L 231.66019 84.116035 
L 232.756386 83.316869 
L 233.852582 82.761248 
L 234.948777 82.886591 
L 236.044973 82.6601 
L 237.141168 80.893047 
L 238.237364 80.600048 
L 239.33356 80.893047 
L 240.429755 82.004503 
L 241.525951 81.747636 
L 242.622147 81.973807 
L 243.718342 81.908151 
L 244.814538 82.70316 
L 245.910734 82.098617 
L 248.103125 81.198303 
L 249.199321 81.198943 
L 250.295516 80.915643 
L 251.391712 81.464443 
L 253.584103 82.36902 
L 254.680299 82.426468 
L 255.776495 82.03893 
L 257.968886 80.786144 
L 259.065082 79.71455 
L 260.161277 78.260854 
L 261.257473 77.303731 
L 262.353668 76.169573 
L 263.449864 72.635255 
L 265.642255 71.980617 
L 266.738451 71.579329 
L 267.834647 71.338982 
L 270.027038 71.038309 
L 271.123234 73.954655 
L 272.219429 74.365856 
L 273.315625 74.342087 
L 274.411821 75.199554 
L 275.508016 75.682059 
L 277.700408 76.234376 
L 278.796603 76.211887 
L 280.988995 76.49476 
L 282.08519 76.224038 
L 284.277582 76.431663 
L 285.373777 77.09536 
L 286.469973 77.594066 
L 287.566168 77.426196 
L 288.662364 78.115154 
L 289.75856 78.393231 
L 291.950951 79.267964 
L 293.047147 79.077286 
L 294.143342 78.029993 
L 296.335734 77.328032 
L 298.528125 75.862718 
L 299.624321 75.312213 
L 300.720516 75.152764 
L 301.816712 75.914305 
L 302.912908 76.291185 
L 304.009103 76.451381 
L 307.29769 77.963805 
L 308.393886 78.81914 
L 309.490082 79.130897 
L 310.586277 78.986796 
L 311.682473 78.674186 
L 312.778668 78.603627 
L 313.874864 79.284271 
L 314.97106 79.507778 
L 316.067255 79.414517 
L 317.163451 79.542098 
L 318.259647 79.78756 
L 319.355842 80.210485 
L 320.452038 79.971844 
L 321.548234 79.213606 
L 322.644429 78.047686 
L 323.740625 77.690098 
L 325.933016 76.699188 
L 327.029212 76.262408 
L 328.125408 76.485914 
L 329.221603 76.371549 
L 332.51019 76.6929 
L 334.702582 77.404133 
L 335.798777 77.263976 
L 336.894973 77.67379 
L 337.991168 78.336315 
L 339.087364 78.285794 
L 340.18356 78.601602 
L 341.279755 78.716819 
L 342.375951 78.407726 
L 343.472147 77.963592 
L 344.568342 77.855942 
L 345.664538 77.345406 
L 348.953125 76.843609 
L 350.049321 76.990588 
L 351.145516 77.859246 
L 352.241712 77.980219 
L 353.337908 78.425099 
L 354.434103 78.067191 
L 356.626495 76.04487 
L 357.72269 71.987651 
L 358.818886 70.305013 
L 359.915082 67.372573 
L 361.011277 64.970814 
L 362.107473 63.248313 
L 363.203668 62.184287 
L 364.299864 60.103878 
L 365.39606 60.773331 
L 366.492255 58.923995 
L 368.684647 58.831374 
L 369.780842 59.547724 
L 370.877038 63.806812 
L 371.973234 65.063044 
L 373.069429 67.194813 
L 374.165625 70.139169 
L 374.165625 70.139169 
" clip-path="url(#pafeadf0f95)" style="fill: none; stroke: #b279a2; stroke-width: 1.6; stroke-linecap: round"/>
   </g>
   <g id="line2d_12">
    <path d="M 46.403125 96.516671 
L 47.499321 96.843638 
L 48.595516 96.854079 
L 49.691712 96.650606 
L 51.884103 95.924672 
L 52.980299 95.823147 
L 54.076495 95.465802 
L 55.17269 94.811347 
L 56.268886 94.904623 
L 57.365082 94.464049 
L 58.461277 94.675396 
L 59.557473 94.557141 
L 61.749864 94.04025 
L 62.84606 94.262196 
L 63.942255 93.538521 
L 65.038451 94.233808 
L 66.134647 94.285884 
L 67.230842 94.912043 
L 68.327038 95.253027 
L 69.423234 95.711114 
L 71.615625 95.759964 
L 73.808016 94.513453 
L 77.096603 91.366712 
L 80.38519 88.929361 
L 81.481386 88.361868 
L 82.577582 89.219328 
L 83.673777 89.458464 
L 84.769973 89.998674 
L 85.866168 90.334497 
L 88.05856 92.159515 
L 89.154755 92.585849 
L 90.250951 91.40017 
L 91.347147 91.497364 
L 92.443342 91.182694 
L 95.731929 92.0461 
L 96.828125 93.418515 
L 97.924321 96.037996 
L 99.020516 98.278057 
L 101.212908 104.341204 
L 102.309103 107.906766 
L 103.405299 112.474082 
L 104.501495 118.234772 
L 107.790082 132.050041 
L 108.886277 137.557724 
L 109.982473 142.026648 
L 111.078668 145.509533 
L 112.174864 147.475157 
L 113.27106 149.91827 
L 114.367255 152.009291 
L 115.463451 154.838551 
L 116.559647 155.624119 
L 117.655842 156.979667 
L 118.752038 158.955292 
L 119.848234 160.192217 
L 120.944429 161.255264 
L 122.040625 161.740909 
L 123.136821 161.240609 
L 124.233016 161.097514 
L 125.329212 160.425777 
L 126.425408 159.102304 
L 127.521603 157.971558 
L 128.617799 157.030131 
L 129.713995 157.179539 
L 130.81019 157.06004 
L 131.906386 156.000496 
L 133.002582 155.197785 
L 134.098777 153.174739 
L 135.194973 152.378894 
L 136.291168 150.395435 
L 137.387364 147.699177 
L 138.48356 145.371647 
L 139.579755 143.949643 
L 140.675951 142.930839 
L 141.772147 142.198592 
L 142.868342 140.692575 
L 145.060734 142.216242 
L 146.156929 145.087025 
L 147.253125 146.803927 
L 148.349321 147.839921 
L 149.445516 150.583739 
L 150.541712 151.976847 
L 151.637908 150.76937 
L 152.734103 151.130033 
L 153.830299 150.429953 
L 154.926495 150.373821 
L 156.02269 149.759138 
L 157.118886 150.05611 
L 158.215082 148.638946 
L 159.311277 147.502117 
L 160.407473 143.888903 
L 162.599864 139.205545 
L 163.69606 136.493434 
L 164.792255 132.163411 
L 165.888451 131.438077 
L 166.984647 132.300652 
L 168.080842 134.173876 
L 169.177038 133.228301 
L 170.273234 131.874549 
L 171.369429 131.644538 
L 172.465625 131.119766 
L 173.561821 128.029987 
L 174.658016 125.718632 
L 176.850408 122.008685 
L 177.946603 120.487276 
L 180.138995 118.165921 
L 181.23519 119.258922 
L 182.331386 118.814293 
L 183.427582 116.697694 
L 185.619973 114.913185 
L 186.716168 113.517818 
L 187.812364 115.304263 
L 190.004755 115.454547 
L 193.293342 117.280855 
L 194.389538 119.473541 
L 195.485734 116.780555 
L 196.581929 115.144578 
L 197.678125 115.161814 
L 198.774321 114.921065 
L 199.870516 113.595564 
L 200.966712 113.491872 
L 202.062908 111.497261 
L 205.351495 110.554128 
L 206.44769 109.538457 
L 207.543886 108.921976 
L 208.640082 107.777129 
L 209.736277 107.708324 
L 210.832473 106.601727 
L 211.928668 106.102671 
L 213.024864 105.13585 
L 214.12106 106.177144 
L 215.217255 106.239452 
L 216.313451 105.944276 
L 217.409647 105.353695 
L 218.505842 107.122074 
L 219.602038 107.444578 
L 220.698234 106.05253 
L 221.794429 105.275212 
L 222.890625 105.275534 
L 225.083016 105.005245 
L 226.179212 104.187879 
L 227.275408 104.164744 
L 228.371603 104.46439 
L 229.467799 104.614397 
L 230.563995 105.018702 
L 233.852582 104.929205 
L 234.948777 105.676844 
L 236.044973 105.886439 
L 237.141168 104.829568 
L 238.237364 104.463883 
L 239.33356 104.664169 
L 240.429755 105.966167 
L 241.525951 106.266273 
L 242.622147 105.594398 
L 243.718342 105.778508 
L 244.814538 106.614354 
L 245.910734 106.623756 
L 247.006929 106.394666 
L 248.103125 105.116633 
L 249.199321 104.167002 
L 251.391712 103.687532 
L 252.487908 103.989989 
L 253.584103 104.056121 
L 254.680299 104.906577 
L 255.776495 105.43545 
L 256.87269 105.711823 
L 257.968886 105.107324 
L 259.065082 104.711452 
L 260.161277 103.185711 
L 261.257473 102.141836 
L 263.449864 99.307138 
L 264.54606 98.668767 
L 266.738451 98.700105 
L 267.834647 99.591207 
L 270.027038 99.031457 
L 271.123234 99.032332 
L 272.219429 99.35562 
L 273.315625 99.40212 
L 274.411821 99.173123 
L 275.508016 98.761951 
L 276.604212 99.083257 
L 277.700408 99.720061 
L 278.796603 100.128744 
L 279.892799 99.418757 
L 280.988995 98.354328 
L 282.08519 98.619456 
L 284.277582 98.766421 
L 285.373777 98.352761 
L 287.566168 98.323036 
L 288.662364 99.249071 
L 289.75856 98.776099 
L 290.854755 98.597473 
L 291.950951 98.200219 
L 293.047147 98.50839 
L 294.143342 97.388429 
L 295.239538 97.088691 
L 296.335734 96.095602 
L 297.431929 95.545484 
L 298.528125 94.657054 
L 299.624321 94.431421 
L 300.720516 93.64613 
L 301.816712 93.876786 
L 302.912908 93.823973 
L 304.009103 94.164818 
L 305.105299 94.338191 
L 306.201495 95.629866 
L 307.29769 96.168693 
L 308.393886 97.359764 
L 309.490082 97.982236 
L 310.586277 98.290454 
L 311.682473 98.728723 
L 312.778668 98.804211 
L 313.874864 98.230773 
L 314.97106 98.031271 
L 316.067255 97.447556 
L 318.259647 97.838543 
L 320.452038 97.000254 
L 322.644429 95.929419 
L 323.740625 95.842917 
L 327.029212 94.462943 
L 328.125408 94.490963 
L 330.317799 94.354182 
L 331.413995 93.712861 
L 332.51019 92.915588 
L 333.606386 92.535754 
L 334.702582 92.400955 
L 335.798777 91.994715 
L 336.894973 91.990797 
L 337.991168 91.428144 
L 339.087364 91.105225 
L 341.279755 91.360352 
L 342.375951 91.693179 
L 343.472147 92.447686 
L 344.568342 92.768623 
L 345.664538 93.708483 
L 346.760734 94.474879 
L 347.856929 94.994029 
L 350.049321 95.325704 
L 352.241712 95.209938 
L 353.337908 94.957068 
L 354.434103 94.001907 
L 355.530299 93.55078 
L 357.72269 93.409805 
L 358.818886 93.614977 
L 359.915082 93.467781 
L 361.011277 92.335929 
L 362.107473 92.590181 
L 363.203668 92.4434 
L 365.39606 89.756773 
L 367.588451 86.811333 
L 368.684647 87.72004 
L 369.780842 87.714971 
L 373.069429 89.810011 
L 374.165625 90.961324 
L 374.165625 90.961324 
" clip-path="url(#pafeadf0f95)" style="fill: none; stroke: #72b7b2; stroke-width: 1.6; stroke-linecap: round"/>
   </g>
   <g id="line2d_13">
    <path d="M 0 0 
" clip-path="url(#pafeadf0f95)" style="fill: none; stroke: #e45756; stroke-width: 1.6; stroke-linecap: round"/>
   </g>
   <g id="patch_3">
    <path d="M 46.403125 169.1 
L 374.165625 169.1 
" style="fill: none; stroke: #000000; stroke-width: 0.8; stroke-linejoin: miter; stroke-linecap: square"/>
   </g>
  </g>
 </g>
 <defs>
  <clipPath id="pafeadf0f95">
   <rect x="46.403125" y="7.2" width="327.7625" height="161.9"/>
  </clipPath>
 </defs>
</svg>
